# xmcd
#
# Track frame offsets: 
#        150
#        14165
#        25405
#        40078
#        56327
#        68930
#        80393
#        94892
#        108803
#        119813
#        134485
#        150230
#        162760
#        173470
#
# Disc length: 2559 seconds
#
# Revision: 3
# Processed by: cddbd v1.5.2PL0 Copyright (c) Steve Scherf et al.
# Submitted via: ExactAudioCopyFreeDBPlugin 1.0
#
DISCID=af09fd0e
DTITLE=Various Artist - Blues Breakers! [CD 2)
DYEAR=1994
DGENRE=Blues
TTITLE0=Howlin' Wolf - Smokestack Lightnin'
TTITLE1=John Lee Hooker - Boom Boom
TTITLE2=Muddy Waters - Baby Please Don't Go
TTITLE3=B.B. King - It's My Own Fault Baby
TTITLE4=Elmore James - Standing At The Crossroads
TTITLE5=Sonny Boy Williamson - Born Blind
TTITLE6=John Mayall - John Lee Boogie
TTITLE7=Little Walter - Confessin' The Blues
TTITLE8=Canned Heat - Can't Hold On
TTITLE9=Memphis Slim - I'm Crying
TTITLE10=Mike Bloomfield - Don't You Lie To Me
TTITLE11=Eric Clapton - Freight Loader
TTITLE12=Johnny Winter - Out Of Sight
TTITLE13=Santana - With A Little Help From My Friends
EXTD=Year: 1994
EXTT0=
EXTT1=
EXTT2=
EXTT3=
EXTT4=
EXTT5=
EXTT6=
EXTT7=
EXTT8=
EXTT9=
EXTT10=
EXTT11=
EXTT12=
EXTT13=
PLAYORDER=
